<?xml version="1.0" encoding="utf-8"?>
<!-- Generator: Adobe Illustrator 22.1.0, SVG Export Plug-In . SVG Version: 6.00 Build 0)  -->
<svg version="1.1" id="Layer_1" xmlns="http://www.w3.org/2000/svg" xmlns:xlink="http://www.w3.org/1999/xlink" x="0px" y="0px"
	 viewBox="0 0 505 503" style="enable-background:new 0 0 505 503;" xml:space="preserve">
<style type="text/css">
	.st0{fill:#F38B2A;}
</style>
<title>check</title>
<path d="M104.5,76.1c1.5,0,1.5,0,3,0c1.6,0,1.6,0,3.3,0c1.2,0,2.3,0,3.5,0c3.2,0,6.4,0,9.6,0c3.5,0,6.9,0,10.4,0
	c6.8,0,13.6,0,20.3,0c5.5,0,11,0,16.5,0c0.8,0,1.6,0,2.4,0c1.6,0,3.2,0,4.8,0c14.9,0,29.8,0,44.8,0c12.8,0,25.6,0,38.4,0
	c14.9,0,29.7,0,44.6,0c1.6,0,3.2,0,4.8,0c1.2,0,1.2,0,2.4,0c5.5,0,11,0,16.5,0c6.7,0,13.4,0,20.1,0c3.4,0,6.8,0,10.3,0
	c3.1,0,6.3,0,9.4,0c1.7,0,3.3,0,5,0c1,0,2,0,3,0c1.3,0,1.3,0,2.6,0c3,0.5,4.4,1.7,6.6,3.8c1.1,2.3,1.1,2.3,2,4.9c0.3,1,0.7,2,1,3
	c0.3,1.1,0.7,2.2,1,3.3c0.4,1.2,0.7,2.3,1.1,3.5c1,3.1,2,6.2,3,9.3c1,3.2,2.1,6.5,3.1,9.7c1.9,5.9,3.8,11.7,5.6,17.6
	c2,6.1,3.9,12.2,5.9,18.3c2.7,8.5,5.5,17,8.2,25.6c0.9,2.7,1.7,5.4,2.6,8.1c0.3,0.9,0.3,0.9,0.6,1.9c0.5,1.6,1.1,3.2,1.6,4.8
	c2,8.8-1,18.2-5.3,25.9c-5.7,9-14.3,15.8-24.6,18.7c-2,0.3-3.9,0.6-5.9,0.8c0,6.2,0,12.3,0,18.7c8.8,2.9,15.5,4.1,24.1,0.3
	c2.5-1.3,4.9-2.8,7.4-4.3c4.3-2.6,6.8-3.7,11.8-2.8c2.8,2.3,4,4.4,5.2,7.9c0.3,0.9,0.6,1.7,0.9,2.6c0.3,0.9,0.6,1.8,0.9,2.7
	c0.3,0.9,0.6,1.8,0.9,2.7c8.1,24.7,6.5,53-5.1,76.3c-5.3,10.1-11.8,18.5-19.6,26.7c-0.9,1-0.9,1-1.8,2c-6.7,7.2-15.4,13.9-24.5,17.6
	c0,3.9,0,7.8,0,11.9c1,0,1.9,0,2.9-0.1c3.6-0.1,7.1-0.1,10.7-0.1c1.5,0,3.1,0,4.6-0.1c2.2,0,4.4-0.1,6.7-0.1c0.7,0,1.4,0,2.1-0.1
	c3.1,0,4.9,0.1,7.4,1.9c2.5,3.5,2.3,6.9,2.3,11c0,0.6,0,1.3,0,2c0,1.4,0,2.7,0,4.1c0,2.1,0,4.2,0,6.3c0,1.3,0,2.7,0,4
	c0,0.6,0,1.2,0,1.9c0,4.4-0.4,7.7-3.6,10.9c-3,1.1-6.1,1-9.3,1c-0.9,0-0.9,0-1.8,0c-2,0-4,0-6,0c-1.4,0-2.9,0-4.3,0
	c-4,0-7.9,0-11.9,0c-4.3,0-8.6,0-12.8,0c-8.4,0-16.8,0-25.2,0c-6.8,0-13.6,0-20.5,0c-19.3,0-38.6,0-58,0c-1,0-2.1,0-3.2,0
	c-1.6,0-1.6,0-3.2,0c-16.9,0-33.8,0-50.8,0c-17.4,0-34.7,0-52.1,0c-9.8,0-19.5,0-29.3,0c-8.3,0-16.6,0-24.9,0c-4.2,0-8.5,0-12.7,0
	c-3.9,0-7.8,0-11.6,0c-1.4,0-2.8,0-4.2,0c-1.9,0-3.8,0-5.7,0c-1.1,0-2.1,0-3.2,0c-3.4-0.3-5.9-0.9-8.5-3.2c-1.5-3.1-1.4-6.1-1.4-9.5
	c0-0.7,0-1.4,0-2.2c0-1.5,0-3,0-4.6c0-2.3,0-4.6-0.1-7c0-1.5,0-3,0-4.4c0-0.7,0-1.4,0-2.1c0-0.7,0-1.3,0-2c0-0.6,0-1.1,0-1.7
	c0.5-1.7,0.5-1.7,4.8-6c10.4,0,20.7,0,31.4,0c0-53.5,0-107.1,0-162.2c-2.8-0.6-5.6-1.1-8.5-1.7c-10.7-4-18.3-11.1-23.4-21.4
	c-5-11.6-4.3-20.7-0.3-32.5c0.4-1.1,0.7-2.2,1.1-3.3c0.8-2.4,1.5-4.7,2.3-7.1c1.2-3.7,2.4-7.4,3.7-11.1c1.2-3.8,2.5-7.5,3.7-11.3
	c3.5-10.7,7-21.4,10.4-32.1c0.8-2.6,1.7-5.2,2.5-7.8c0.3-0.8,0.5-1.6,0.8-2.5c0.5-1.5,1-3.1,1.5-4.6c1.1-3.5,2.2-6.9,3.2-10.5
	c0.2-0.6,0.4-1.3,0.6-1.9c0.5-1.7,0.9-3.3,1.4-5C96.3,77.7,99.4,76.1,104.5,76.1z M107.3,90.1c-0.6,1.5-1.1,3-1.7,4.6
	c-0.3,0.8-0.6,1.7-1,2.6c-0.8,2.1-0.8,2.1-0.7,3.9c90.5,0,181.1,0,274.3,0c-0.8-6-0.8-6-3.4-11c-1.4-0.1-2.9-0.1-4.3-0.1
	c-0.9,0-1.9,0-2.8,0c-1.6,0-1.6,0-3.1,0c-1.1,0-2.2,0-3.3,0c-3,0-6.1,0-9.1,0c-3.3,0-6.6,0-9.8,0c-5.7,0-11.4,0-17.1,0
	c-8.2,0-16.5,0-24.7,0c-13.4,0-26.7,0-40,0c-13,0-25.9,0-38.9,0c-1.2,0-1.2,0-2.4,0c-4,0-8,0-12,0C173.8,90.1,140.5,90.1,107.3,90.1
	z M98.8,115.6c-14.9,35.1-14.9,35.1-22.1,71.3c108.8,0,217.5,0,329.6,0c-2.5-8.6-5.1-17.2-7.9-25.7c-0.3-1-0.6-2-1-3
	c-1-3.1-2-6.2-3.1-9.3c-0.7-2.1-1.4-4.2-2.1-6.3c-1.3-3.9-2.5-7.7-3.8-11.6c-0.3-0.8-0.5-1.5-0.8-2.3c-1.4-4.4-2.9-8.7-4.4-13.1
	C289.4,115.6,195.5,115.6,98.8,115.6z M75,200.6c1.1,6.5,3.6,10.8,8.6,15.2c6.8,4.8,13.7,7,22,6.1c8.9-1.6,15.1-6.4,20.4-13.6
	c0.8-2.5,1.7-5,2.5-7.6C110.8,200.6,93.2,200.6,75,200.6z M144.6,200.6c1.4,7,5.4,12.6,11,17c7.2,4,14.7,5.6,22.8,3.7
	c8-2.7,13.2-6.6,17.8-13.6c1.3-2.4,1.3-2.4,1.8-7.1C180.5,200.6,162.8,200.6,144.6,200.6z M214.3,200.6c2.9,8.7,6.4,14.4,14.7,18.7
	c7,3.2,14.3,3.5,21.6,1.1c7.4-3,12.9-7.4,16.5-14.8c0.3-1.7,0.6-3.4,0.8-5.1C250.1,200.6,232.5,200.6,214.3,200.6z M283.9,200.6
	c4.2,10.6,7.3,14.8,17.2,19.4c7.3,3,14.1,2.4,21.4-0.5c6.5-3.1,10.8-7.4,14.1-13.8c0.6-1.7,1.1-3.4,1.7-5.1
	C320.3,200.6,302.4,200.6,283.9,200.6z M354.4,200.6c1.1,6.5,3.6,10.8,8.6,15.2c6.8,4.8,13.7,7,22,6.1c8.5-1.7,14.8-6.5,20-13.2
	c1.6-2.6,1.6-2.6,2.9-8C390.3,200.6,372.6,200.6,354.4,200.6z M136.1,217.5c-0.5,0.6-0.9,1.1-1.4,1.7c-6.7,7.8-13.1,11.7-22.9,14.7
	c-2,0.5-2,0.5-2.9,1.5c-0.1,2.1-0.1,4.2-0.1,6.3c0,0.7,0,1.3,0,2c0,2.2,0,4.5,0,6.7c0,1.6,0,3.2,0,4.8c0,4.4,0,8.7,0,13.1
	c0,4.5,0,9.1,0,13.6c0,8.6,0,17.2,0,25.8c0,9.8,0,19.6,0,29.4c0,20.2,0,40.3,0,60.5c9.8,0,19.6,0,29.7,0c0-4.2,0-8.4,0-12.7
	c0-13.8,0.1-27.5,0.2-41.3c0-8.4,0.1-16.7,0.1-25.1c0-7.3,0-14.6,0.1-21.8c0-3.9,0-7.7,0-11.6c0-3.6,0-7.3,0-10.9c0-1.3,0-2.7,0-4
	c0-1.8,0-3.6,0-5.5c0-1.5,0-1.5,0-3.1c0.4-2.8,0.8-4,2.9-6c1.6-0.4,1.6-0.4,3.5-0.4c0.7,0,1.4,0,2.2,0c0.8,0,1.6,0,2.4,0
	c0.8,0,1.7,0,2.5,0c2.8,0,5.5,0,8.3,0c1.9,0,3.8,0,5.7,0c4,0,8,0,12,0c5.1,0,10.3,0,15.4,0c4,0,7.9,0,11.9,0c1.9,0,3.8,0,5.7,0
	c2.7,0,5.3,0,8,0c1.2,0,1.2,0,2.4,0c0.7,0,1.4,0,2.2,0c0.6,0,1.3,0,1.9,0c1.6,0.3,1.6,0.3,3.1,1.3c1.6,2.4,1.4,4.3,1.4,7.2
	c0,0.9,0,0.9,0,1.7c0,1.9,0,3.8,0,5.8c0,1.4,0,2.8,0,4.2c0,3.7,0,7.5,0,11.2c0,3.5,0,7,0,10.5c0,10.3,0.1,20.5,0.1,30.8
	c0.1,22.9,0.2,45.9,0.3,69.5c46.8,0,93.6,0,141.8,0c0-3.9,0-7.8,0-11.9c-3-2.5-5.3-4.1-8.7-5.9c-2.7-1.6-5.1-3.5-7.6-5.4
	c-0.5-0.4-1-0.8-1.5-1.2c-20.9-16.8-32.7-40.1-36.6-66.4c-1-16.4,0.4-31.4,5.5-47c0.2-0.8,0.5-1.5,0.7-2.3c2.4-7,2.4-7,5.7-9.3
	c5.7-1.2,10.7,2.5,15.4,5.3c6,3.6,12.5,5.2,19.5,4c2.5-1.1,5-2.2,7.6-3.4c0-6.4,0-12.9,0-19.5c-2.8-0.8-5.6-1.7-8.5-2.5
	c-7-3.3-13.5-7.9-17.8-14.4c-0.6,0-1.1,0-1.7,0c-1.3,1.3-1.3,1.3-2.6,3c-6.4,7.4-13.9,12.5-23.7,14c-13.2,0.8-24.3-0.5-34.8-9.3
	c-5.4-4.9-5.4-4.9-6.8-7.6c-2.9,1-3.4,1.7-5.2,4c-6,7-15.2,12.3-24.5,13.2c-12.4,0.4-23-0.8-33.1-8.6c-2.7-2.7-5.2-5.5-7.6-8.5
	c-0.8,0.8-0.8,0.8-1.6,1.7c-0.9,0.9-1.7,1.7-2.6,2.5c-0.5,0.5-1.1,1.1-1.7,1.6c-9.6,9.1-20.5,11.6-33.4,11.4
	c-11.5-0.5-21.1-6.4-28.7-14.7C137.8,219.2,137,218.4,136.1,217.5z M337.4,264.3c-4,8.1-5.5,17.4-5.9,26.3c0,0.7-0.1,1.5-0.1,2.2
	c-0.7,21.1,6.6,42.9,21,58.5c1.5,1.6,3.1,3.2,4.6,4.7c0.6,0.6,1.1,1.2,1.7,1.8c6.2,6.6,13.9,12.2,22.1,16
	c22.7-15.4,40.2-33.4,46.3-61.1c2.9-16.3,2.1-32.9-3.8-48.5c-1.5,0.6-1.5,0.6-3,1.3c-1.3,0.5-2.6,1.1-3.9,1.6c-1,0.4-1,0.4-2,0.8
	c-9.1,3.8-18.5,4.2-27.8,0.6c-0.6-0.2-1.1-0.5-1.7-0.7c-3.9-1.4-6.1-1.1-9.9,0.3c-11.2,4.1-21.7,3.4-32.5-1.6
	C340.7,265.9,339.1,265.1,337.4,264.3z M153.1,268.5c0,4.8,0,9.5,0,14.4c21.3,0,42.6,0,64.6,0c0-4.8,0-9.5,0-14.4
	C196.4,268.5,175.1,268.5,153.1,268.5z M153.1,296.5c0,33.4,0,66.7,0,101.1c21.3,0,42.6,0,64.6,0c0-14.3,0-28.6,0-43.3
	c-4.2-0.3-8.4-0.6-12.7-0.9c-4.2-4.2-4.2-4.2-4.3-7.3c0.9-2.9,0.9-2.9,4.3-5.4c4.2-0.3,8.4-0.6,12.7-0.9c0-14.3,0-28.6,0-43.3
	C196.4,296.5,175.1,296.5,153.1,296.5z M73.3,411.2c0,4.8,0,9.5,0,14.4c110.7,0,221.4,0,335.5,0c0-4.8,0-9.5,0-14.4
	C298.1,411.2,187.4,411.2,73.3,411.2z"/>
<path class="st0" d="M413.9,292.3c2.2,3.3,2.3,4.6,1.7,8.5c-4,5.7-9.6,10.5-14.5,15.4c-0.8,0.8-1.6,1.6-2.4,2.4
	c-1.7,1.7-3.4,3.4-5,5c-2.2,2.1-4.3,4.3-6.4,6.5c-1.7,1.7-3.3,3.3-5,5c-1.2,1.2-2.4,2.4-3.5,3.5c-1.1,1.1-1.1,1.1-2.2,2.1
	c-0.6,0.6-1.3,1.3-1.9,1.9c-1.9,1.8-2.9,2.2-5.5,2.7c-6.8-1-12.6-9.1-17.3-13.9c-0.6-0.6-1.3-1.3-2-2c-0.6-0.6-1.2-1.2-1.9-1.9
	c-0.6-0.6-1.1-1.1-1.7-1.7c-1.8-1.9-2.1-2.9-2.5-5.5c0.3-2.7,0.3-2.7,2.1-5.1c2.5-1.8,2.5-1.8,5.2-2.3c4.9,0.8,7.1,3.8,10.4,7.3
	c0.6,0.6,1.2,1.3,1.9,2c1.5,1.6,3,3.2,4.5,4.8c4.6-3.8,8.7-7.8,12.9-12c1.3-1.3,2.6-2.7,3.9-4c2.1-2.1,4.1-4.2,6.1-6.2
	c2-2,4-4,6-6.1c0.6-0.6,1.2-1.3,1.8-1.9c0.9-0.9,0.9-0.9,1.7-1.8c0.5-0.5,1-1,1.5-1.5C406.2,290.3,409,290.4,413.9,292.3z"/>
<path class="st0" d="M387,254c8.7,2.9,15.4,4,23.9,0.2c2.5-1.3,4.9-2.8,7.3-4.3l0.1-0.1c4.3-2.6,6.8-3.7,11.8-2.8
	c2.8,2.3,4,4.4,5.2,7.9l0.9,2.6l0.9,2.7l0.9,2.7c8.1,24.7,6.5,53-5.1,76.3c-5.3,10.1-11.8,18.5-19.6,26.7l-1.8,2
	c-6.7,7.2-15.4,13.9-24.5,17.5l-0.2,0.1l-6.3,4.1l-7.2-4.1v-0.1c-3-2.5-5.3-4.1-8.7-5.9c-2.7-1.5-5.1-3.4-7.5-5.4l-0.1-0.1l-1.5-1.2
	c-20.9-16.8-32.7-40.1-36.6-66.4c-0.9-16.4,0.4-31.4,5.5-47l0.7-2.3l0,0c2.4-7,2.4-7,5.7-9.3c5.1-1.1,9.7,1.7,13.9,4.4
	c0.5,0.3,1,0.6,1.5,0.9c6,3.6,12.5,5.2,19.5,4l7.5-3.3l0.1,0l7.5-4.4L387,254L387,254z M331.6,290.5c0.5-8.9,1.9-18.3,5.9-26.3
	c1.6,0.8,3.3,1.6,4.9,2.4c10.8,4.9,21.3,5.7,32.5,1.6c3.9-1.4,6-1.7,9.9-0.3l1.7,0.7c9.3,3.5,18.7,3.2,27.8-0.6l2-0.8
	c1.3-0.5,2.6-1.1,3.9-1.6l3-1.3c5.8,15.6,6.6,32.2,3.8,48.5c-6,27.6-23.5,45.6-46.3,61.1c-8.2-3.8-15.9-9.4-22.1-16l-1.7-1.8
	c-1.6-1.6-3.1-3.1-4.6-4.7c-14.4-15.6-21.7-37.4-21-58.5L331.6,290.5z"/>
</svg>
